<svg width="83" height="75" viewBox="0 0 83 75" xmlns="http://www.w3.org/2000/svg"><title>logo</title><g fill="#FFF" fill-rule="evenodd"><path d="M10.17.822V.817h-.002v.005c-.36.48-2.624.885-2.195 3.575.62-.153 1.41-.233 2.196-.234.785 0 1.573.08 2.194.234.428-2.69-1.834-3.096-2.195-3.575M49.903 12.654h-.006c-2.05 2.114-14.897 3.91-12.463 15.8 3.458-.496 8-.75 12.466-.754 4.468.003 8.944.258 12.467.753 2.433-11.89-10.414-13.685-12.464-15.8M25.976 23.9v-.004.005c-.31.408-2.24.753-1.876 3.04.53-.132 1.204-.2 1.876-.2.672 0 1.345.068 1.875.2.367-2.287-1.565-2.632-1.874-3.04M30.992 30.276v-.003.003c-.198.26-1.437.482-1.203 1.947.34-.083.77-.127 1.202-.127.43 0 .862.044 1.202.127.235-1.465-1.004-1.686-1.202-1.947M73.824 23.9v-.004.005c.31.408 2.242.753 1.876 3.04-.53-.132-1.204-.2-1.876-.2-.672 0-1.345.068-1.875.2-.367-2.287 1.566-2.632 1.874-3.04M68.81 30.276v-.003.003c.197.26 1.435.482 1.2 1.947-.34-.083-.77-.127-1.2-.127-.432 0-.864.044-1.203.127-.235-1.465 1.004-1.686 1.202-1.947"/><path d="M49.857 11h.093v1.75h-.093V11z"/><path d="M49.568 12.23c0 .186.15.337.336.337.184 0 .334-.15.334-.336 0-.185-.15-.336-.334-.336-.185 0-.336.15-.336.337M49.697 11.475c0 .114.092.207.207.207.113 0 .205-.093.205-.207 0-.114-.093-.207-.206-.207-.115 0-.207.093-.207.207M50.185 9.42c.123.137.2.316.2.516 0 .43-.347.78-.776.78-.257 0-.483-.13-.624-.322.096.364.424.634.816.634.47 0 .85-.38.85-.852 0-.332-.192-.616-.467-.757M23.212 27.71c0 .062.03.123.082.18.294-.304 1.38-.53 2.68-.53 1.297 0 2.383.226 2.678.53.05-.057.08-.118.08-.18 0-.42-1.235-.76-2.76-.76-1.524 0-2.76.34-2.76.76M49.898 30.99c-5.76.002-9.758.103-12.02.18v25.163h.48V32.626h23.08v23.707h.482V31.17c-2.262-.077-6.26-.178-12.022-.18"/><path d="M43.306 36.46v17.643h.776V37.327h11.633v16.776h.776V36.46H43.307"/><path d="M53.59 44.487l-.002 9.32h1.49l.056-9.423c-.437-.038-1.04-.046-1.543.103M55.136 44.114l.006-1.204c-.436-.038-1.044-.048-1.55.102v1.2c.5-.17 1.143-.14 1.544-.098M46.206 44.487l.003 9.32h-1.49l-.056-9.423c.436-.038 1.04-.046 1.542.103M44.662 44.114l-.007-1.204c.437-.038 1.044-.048 1.55.102v1.2c-.5-.17-1.143-.14-1.543-.098M52.45 38.622c-.927-.56-2.547-1.18-2.547-1.18h-.01s-1.62.62-2.544 1.18c-3.028 1.83-2.696 3.95-2.696 3.95.4-.045 1.048-.075 1.55.095v-.083s.01-.662.607-1.51c.575-.818 1.202-1.208 1.81-1.666.705-.53 1.22-.917 1.275-.96v-.006.002h.005v-.002h.002v.007c.056.04.57.428 1.275.958.608.458 1.236.848 1.81 1.665.596.85.605 1.51.605 1.51v.084c.503-.17 1.153-.14 1.552-.096 0 0 .33-2.117-2.695-3.948M51.127 50.196c-.23-.277-.478-.41-.72-.563l-.506-.324v-.003H49.9v.002c-.023.012-.228.143-.508.323-.242.154-.492.286-.72.563-.237.287-.24.51-.24.51v.276h2.937v-.277s-.003-.222-.24-.51M51.367 51.37H48.43v4.932h2.937V51.37M53.383 43.043c-.78.39-2.046.644-3.485.648-1.437-.003-2.704-.258-3.484-.647v1.21c.792.378 2.053.623 3.48.628h.01c1.427-.004 2.687-.25 3.48-.627v-1.21M10.115.503h.103v.41h-.103v-.41zM10.14.03h.052v.157h-.05V.03zM10.004.345c0 .058.053.106.117.106h.092c.065 0 .117-.047.117-.105 0-.058-.053-.105-.118-.105h-.09c-.065 0-.118.047-.118.105M13.856 13.09c0-.484-1.652-.876-3.69-.876-2.037 0-3.688.392-3.688.876 0 .072.04.14.11.208.392-.35 1.844-.612 3.58-.612 1.734 0 3.185.26 3.578.612.07-.067.11-.136.11-.208M12.72 15.43v-.92c-.173-.16-1.24-.285-2.536-.285h-.034c-1.296 0-2.364.124-2.536.285v.986c.17-.162 1.238-.286 2.536-.286h.033c1.297 0 2.366.124 2.536.286v-.067M6.934 5.305c0 .073.036.144.097.212.346-.358 1.617-.624 3.137-.624s2.79.266 3.136.624c.06-.068.096-.14.096-.212 0-.495-1.448-.895-3.233-.895-1.785 0-3.233.4-3.233.895M10.167 6.704c-1.253 0-2.27.194-2.27.433v4.988c.664-.12 1.47-.182 2.27-.182s1.603.062 2.265.182V7.15l.004-.013c0-.24-1.016-.433-2.27-.433zm-1.774.76v4.268l-.242.03V7.458h.002c.004-.086.117-.15.12-.15.003 0 .117.064.12.15v.004zm1.334.137v4.048c-.238.006-.47.016-.693.03V7.59c.012-.266.337-.46.345-.466h.003c.007.007.333.2.344.466l.002.013h-.003zm1.57 0v4.078c-.22-.014-.453-.024-.692-.03V7.59c.013-.266.338-.46.346-.466h.005c.007.007.332.2.343.466l.003.013H11.3zm.885-.136v4.297c-.078-.01-.16-.02-.24-.028V7.46c.003-.086.116-.15.12-.15.003 0 .116.064.12.15v.004z"/><path d="M12.92 6.345v-.63l.004-.006c0-.3-1.235-.544-2.757-.544-1.515 0-2.743.24-2.756.54v.642c.014-.298 1.242-.54 2.757-.54 1.51 0 2.735.24 2.754.537"/><path d="M12.763 6.558c0-.245-1.163-.445-2.596-.445-1.434 0-2.596.2-2.596.445 0 .08.126.155.34.22.122-.196 1.085-.348 2.257-.348 1.17 0 2.134.152 2.255.347.216-.064.34-.14.34-.22M13.335 13.398c-.566-.235-1.768-.398-3.166-.4h-.004c-1.4.002-2.602.165-3.167.4-.073.036-.132.074-.172.115.03.02.13.085.212.21.092.14.3.436.55.493.138-.172 1.237-.306 2.577-.307 1.34 0 2.438.134 2.577.306.25-.057.457-.352.55-.494.08-.124.18-.19.212-.21-.04-.04-.1-.078-.17-.114M13.856 24.884c0-.483-1.652-.876-3.69-.876-2.037 0-3.688.393-3.688.876 0 .072.04.142.11.208.392-.35 1.844-.61 3.58-.61 1.734 0 3.185.26 3.578.61.07-.066.11-.136.11-.208"/><path d="M13.335 25.192c-.566-.234-1.768-.397-3.166-.4h-.004c-1.4.003-2.602.166-3.167.4-.073.036-.132.075-.172.115.03.02.13.086.212.21.092.14.3.436.55.493.138-.17 1.237-.306 2.577-.307 1.34 0 2.438.136 2.577.307.25-.057.457-.352.55-.493.08-.124.18-.19.212-.21-.04-.04-.1-.08-.17-.115M14.406 40.2c0-.558-1.898-1.008-4.24-1.008-2.34 0-4.24.45-4.24 1.007 0 .08.048.16.127.238.453-.403 2.12-.703 4.114-.703 1.993 0 3.66.3 4.113.703.08-.077.126-.157.126-.24"/><path d="M13.807 40.553c-.65-.27-2.03-.457-3.638-.46h-.005c-1.608.003-2.99.19-3.64.46-.08.04-.15.085-.196.13.036.024.15.1.244.242.106.162.345.5.63.568.16-.198 1.423-.352 2.963-.354 1.54 0 2.802.155 2.962.353.284-.067.523-.406.63-.568.093-.142.208-.218.245-.24-.048-.047-.115-.09-.198-.132M61.91 30.182h-.002v-.034h-.256c-3.38-.462-7.59-.7-11.796-.704-4.21.004-8.642.242-11.97.704v.562H61.91v-.528h.002M46.41 44.582v.32c.815.34 1.997.557 3.335.577v.007l.153-.004.154.004v-.008c1.338-.02 2.52-.237 3.334-.578v-.32c-.78.36-2.05.602-3.485.606-1.44-.004-2.708-.247-3.49-.606z"/><path d="M62.21 28.828c-3.552-.452-7.958-.693-12.3-.703h-.023c-4.342.01-8.748.25-12.3.703-.03.003.147.732.278.96 3.43-.488 7.687-.74 12.033-.75 4.347.01 8.606.262 12.035.75.13-.228.307-.957.278-.96M37.57 36.753c.108-.282.387-.425.55-.52v-1.102h-1.637v3.86h.912c-.012-.81.015-1.825.174-2.237M22.92 43.285v.817l.47.27h5.16l.47-.27v-.817h-6.1M29.124 33.32c0-.367-1.41-.666-3.15-.666-1.742 0-3.153.3-3.153.667 0 .056.036.11.095.16.336-.268 1.576-.466 3.058-.466 1.48 0 2.72.198 3.058.466.06-.05.094-.104.094-.16M28.153 35.103v-.7c-.147-.122-1.06-.217-2.166-.217h-.03c-1.106 0-2.018.095-2.165.217v.75c.145-.12 1.058-.216 2.166-.216h.03c1.107 0 2.02.095 2.165.217v-.05M25.973 28.905c-1.07 0-1.938.148-1.938.33v3.352c.566-.092 1.253-.14 1.938-.14.683 0 1.37.048 1.935.14v-3.343l.003-.01c0-.18-.867-.33-1.937-.33zm-1.516.58v2.803l-.206.02v-2.827c.005-.064.1-.112.104-.114.003.002.1.05.103.115v.004zm1.14.104v2.633c-.204.004-.402.012-.592.023V29.578c.01-.203.29-.35.295-.356h.004c.005.006.284.153.292.355l.002.01zm1.343 0v2.656c-.19-.01-.39-.02-.593-.023V29.578h.002c.008-.203.286-.35.292-.356h.004c.006.006.284.153.294.355v.01zm.754-.106v2.825c-.068-.01-.136-.016-.206-.023v-2.806c.003-.064.1-.112.102-.114h.002c.002.002.098.05.102.115v.004zM28.325 28.594v-.534l.002-.007c0-.255-1.054-.46-2.354-.46-1.295 0-2.344.204-2.354.457h-.002v.546c.01-.253 1.06-.458 2.355-.458 1.29 0 2.336.204 2.352.456"/><path d="M28.19 28.775c0-.208-.993-.378-2.217-.378-1.225 0-2.218.17-2.218.378 0 .068.107.13.29.186.105-.164.927-.294 1.928-.294 1 0 1.823.13 1.926.295.183-.054.29-.117.29-.185M28.097 38.99v-3.538c-.142-.12-1.03-.212-2.11-.212h-.03c-1.077 0-1.967.092-2.108.212v3.538h4.247M28.68 33.556c-.485-.18-1.51-.303-2.706-.305h-.003c-1.194.003-2.22.127-2.703.306-.062.028-.113.057-.147.088.027.014.113.065.18.16.08.107.258.332.47.375.12-.132 1.058-.234 2.203-.235 1.144 0 2.083.103 2.2.234.214-.044.39-.27.47-.377.07-.094.155-.145.182-.16-.035-.03-.085-.06-.146-.087M33.01 36.315c0-.237-.905-.428-2.02-.428-1.116 0-2.02.19-2.02.428 0 .035.02.07.06.1.214-.17 1.01-.297 1.96-.297s1.744.127 1.96.298c.037-.032.06-.066.06-.1M32.388 37.457v-.45c-.095-.078-.68-.138-1.39-.138h-.018c-.71 0-1.294.06-1.39.138v.482c.094-.08.68-.14 1.39-.14H31c.71 0 1.294.06 1.388.14v-.033M29.22 32.718c0 .04.02.078.052.115.188-.195.885-.34 1.717-.34.832 0 1.528.145 1.717.34.032-.037.052-.076.052-.115 0-.27-.794-.488-1.77-.488-.978 0-1.77.22-1.77.488M30.99 33.484c-.687 0-1.243.095-1.243.212v2.147c.363-.058.803-.088 1.242-.088.437 0 .878.03 1.24.088v-2.146c0-.117-.554-.212-1.24-.212zm-.972.37v1.798l-.132.014v-1.812c.002-.043.064-.073.066-.075 0 0 .064.03.066.073v.002zm.73.068v1.688c-.13.004-.257.008-.38.016V33.915c.008-.13.186-.225.19-.228h.002c.004.003.182.098.188.228v.006zm.86 0v1.704c-.12-.008-.248-.012-.38-.016V33.915h.002c.005-.13.184-.225.19-.228.004.003.182.098.19.228v.006zm.484-.067v1.81c-.043-.004-.087-.01-.132-.013v-1.8c.003-.04.065-.07.067-.073.002 0 .064.03.065.073v.002z"/><path d="M32.497 33.284V32.938c0-.164-.674-.296-1.508-.296-.83 0-1.503.13-1.51.294v.35c.007-.162.68-.294 1.51-.294.826 0 1.497.13 1.507.292"/><path d="M32.41 33.4c0-.133-.636-.242-1.42-.242-.786 0-1.423.11-1.423.242 0 .044.07.084.187.12.066-.106.594-.19 1.235-.19.64 0 1.168.084 1.235.19.117-.036.185-.076.185-.12M32.35 38.978V37.73c-.09-.077-.66-.136-1.352-.136h-.018c-.69 0-1.262.06-1.352.136v1.248h2.722M32.724 36.465c-.31-.114-.968-.194-1.734-.195h-.002c-.766 0-1.424.08-1.734.195-.04.018-.072.037-.094.056.018.01.072.043.117.103.05.07.164.214.3.242.076-.084.678-.15 1.412-.15.733 0 1.334.066 1.41.15.137-.028.25-.172.302-.242.044-.06.098-.092.116-.102-.023-.018-.055-.037-.094-.055M29.31 43.285h8.592V44.3h-8.59v-1.015zM33.122 52.872V47.98s0-.173-.18-.394c-.17-.213-.358-.315-.54-.434-.21-.14-.364-.24-.38-.25v-.003h-.003l-.382.252c-.18.12-.368.22-.54.434-.178.22-.18.394-.18.394V54.892h2.204v-2.02M37.09 52.872l.003-4.892s-.003-.173-.18-.394c-.172-.213-.36-.315-.54-.434-.21-.14-.365-.24-.38-.25v-.003h-.003l-.382.252c-.18.12-.368.22-.54.434-.178.22-.18.394-.18.394V54.892h2.203v-.334h.002v-1.686M62.23 36.753c-.11-.282-.39-.425-.553-.52v-1.102h1.638v3.86h-.913c.012-.81-.015-1.825-.173-2.237M76.877 43.285v.817l-.47.27h-5.16l-.47-.27v-.817h6.1M70.674 33.32c0-.367 1.41-.666 3.15-.666s3.152.3 3.152.667c0 .056-.035.11-.093.16-.337-.268-1.576-.466-3.058-.466-1.482 0-2.722.198-3.058.466-.06-.05-.093-.104-.093-.16M71.643 35.103v-.7c.148-.122 1.06-.217 2.166-.217h.03c1.106 0 2.02.095 2.165.217v.75c-.145-.12-1.058-.216-2.166-.216h-.03c-1.108 0-2.02.095-2.167.217v-.05M76.585 27.71c0 .062-.03.123-.08.18-.296-.304-1.382-.53-2.68-.53-1.3 0-2.385.226-2.68.53-.05-.057-.08-.118-.08-.18 0-.42 1.234-.76 2.76-.76 1.525 0 2.76.34 2.76.76M71.886 29.235l.003.01v3.34c.565-.09 1.25-.138 1.935-.138.684 0 1.37.048 1.938.14v-3.352c0-.182-.868-.33-1.938-.33-1.07 0-1.94.148-1.94.33zm3.454.25v-.003c.003-.066.1-.114.102-.116h.002c.002.002.098.05.102.115v2.829c-.067-.01-.135-.016-.206-.023v-2.803zm-1.14.104v-.01c.01-.203.288-.35.294-.356h.004c.006.006.284.153.293.355h.002v2.665c-.19-.01-.388-.02-.592-.023V29.59zm-1.344 0l.002-.01c.01-.203.288-.35.293-.356h.005c.007.006.284.153.294.355v2.642c-.204.004-.402.012-.592.023V29.59h-.002zm-.753-.106v-.002c.003-.066.1-.114.102-.116h.002c.002.002.1.05.102.115v2.808l-.207.02v-2.824z"/><path d="M71.472 28.594v-.534l-.002-.007c0-.255 1.054-.46 2.355-.46 1.294 0 2.343.204 2.354.457v.546c-.012-.253-1.06-.458-2.355-.458-1.29 0-2.336.204-2.353.456"/><path d="M71.607 28.775c0-.208.993-.378 2.218-.378 1.224 0 2.217.17 2.217.378 0 .068-.107.13-.29.186-.104-.164-.927-.294-1.927-.294s-1.823.13-1.927.295c-.184-.054-.29-.117-.29-.185M71.7 38.99v-3.538c.143-.12 1.03-.212 2.11-.212h.03c1.078 0 1.968.092 2.108.212v3.538H71.7M71.118 33.556c.484-.18 1.51-.303 2.706-.305h.002c1.195.003 2.22.127 2.705.306.062.028.113.057.147.088-.027.014-.112.065-.18.16-.08.107-.258.332-.47.375-.12-.132-1.058-.234-2.202-.235-1.144 0-2.083.103-2.202.234-.213-.044-.39-.27-.47-.377-.068-.094-.154-.145-.18-.16.034-.03.084-.06.145-.087M66.788 36.315c0-.237.905-.428 2.02-.428 1.116 0 2.02.19 2.02.428 0 .035-.022.07-.06.1-.215-.17-1.01-.297-1.96-.297s-1.744.127-1.96.298c-.038-.032-.06-.066-.06-.1M67.41 37.457v-.45c.095-.078.68-.138 1.39-.138h.018c.71 0 1.294.06 1.388.138v.482c-.093-.08-.678-.14-1.388-.14h-.02c-.71 0-1.295.06-1.388.14v-.033M70.578 32.718c0 .04-.02.078-.052.115-.19-.195-.886-.34-1.718-.34s-1.528.145-1.717.34c-.032-.037-.052-.076-.052-.115 0-.27.792-.488 1.77-.488s1.77.22 1.77.488M67.565 33.696l.002.005v2.143c.363-.058.803-.088 1.24-.088.44 0 .88.03 1.243.088v-2.147c0-.117-.556-.212-1.242-.212-.687 0-1.243.095-1.243.212zm2.214.16v-.003c0-.042.064-.072.065-.074.003 0 .065.03.067.073v1.813l-.132-.014v-1.797zm-.732.066v-.006c.007-.13.185-.225.19-.228.005.003.184.098.19.228V35.625c-.12-.008-.25-.012-.38-.016v-1.688zm-.86 0v-.006c.007-.13.185-.225.19-.228.005.003.183.098.19.228V35.61c-.13.004-.258.008-.38.016v-1.704zm-.484-.067v-.002c.003-.042.065-.072.066-.074.003 0 .064.03.067.073v1.799l-.132.014v-1.81z"/><path d="M67.3 33.284V32.938c0-.164.674-.296 1.508-.296.83 0 1.503.13 1.51.294v.35c-.007-.162-.68-.294-1.51-.294-.827 0-1.497.13-1.508.292"/><path d="M67.386 33.4c0-.133.637-.242 1.422-.242.785 0 1.422.11 1.422.242 0 .044-.07.084-.187.12-.066-.106-.594-.19-1.235-.19-.64 0-1.168.084-1.236.19-.117-.036-.186-.076-.186-.12M67.447 38.978V37.73c.09-.077.66-.136 1.352-.136h.017c.692 0 1.262.06 1.353.136v1.248h-2.723M67.073 36.465c.31-.114.968-.194 1.734-.195h.002c.765 0 1.423.08 1.733.195.04.018.07.037.093.056-.016.01-.072.043-.115.103-.05.07-.165.214-.3.242-.077-.084-.68-.15-1.412-.15-.733 0-1.335.066-1.41.15-.137-.028-.25-.172-.302-.242-.044-.06-.1-.092-.117-.102.022-.018.054-.037.093-.055M61.896 43.285h8.59V44.3h-8.59v-1.015zM66.675 52.872V47.98s.002-.173.18-.394c.172-.213.358-.315.54-.434.21-.14.364-.24.38-.25v-.003h.002l.382.252c.18.12.367.22.54.434.177.22.18.394.18.394v6.913h-2.205v-2.021M62.706 52.872l-.002-4.892s.003-.173.18-.394c.172-.213.36-.315.54-.434.21-.14.365-.24.382-.25v-.003h.002c.017.013.17.113.38.252.183.12.37.22.542.434.178.22.18.394.18.394v6.913h-2.204v-2.021"/><path d="M65.237 56.333h5.614V44.77h-5.613v11.563zm.978-10.314h3.007v9.065h-3.007V46.02zM76.884 42.7c0 .083-.066.148-.147.148h-5.82c-.08 0-.146-.065-.146-.147v-3.366c0-.08.067-.147.148-.147h5.82c.08 0 .146.066.146.147V42.7M29.034 42.7c0 .083-.065.148-.146.148h-5.82c-.08 0-.146-.065-.146-.147v-3.366c0-.08.066-.147.147-.147h5.818c.08 0 .146.066.146.147V42.7M38.124 42.695c0 .08-.065.147-.147.147h-8.515c-.08 0-.146-.066-.146-.147v-3.36c0-.082.065-.148.146-.148h8.515c.082 0 .147.066.147.147v3.36M70.47 42.695c0 .08-.065.147-.147.147h-8.515c-.08 0-.147-.066-.147-.147v-3.36c0-.082.067-.148.148-.148h8.515c.082 0 .147.066.147.147v3.36M12.776 24.014l-.16-7.975v-.154c-.164-.156-1.192-.276-2.443-.278h-.012c-1.25.002-2.278.122-2.443.278v.153l-.16 7.974c.165-.156 1.354-.277 2.61-.278 1.256 0 2.445.122 2.61.278M12.953 39.163l-.28-12.693v-.153c-.16-.15-1.292-.268-2.5-.277h-.01c-1.21.01-2.343.126-2.503.277v.153l-.28 12.693c.16-.152 1.557-.27 2.787-.278 1.23.01 2.626.126 2.786.278M53.254 56.314h5.61v-2.22h-5.61v2.22z"/><path d="M46.194 55.93h7.408v.384h-7.408v-.383z"/><path d="M41.797 56.314V35.55H58v20.764h1.944V34.422h-20.09v21.892h1.943"/><path d="M40.932 56.314h5.61v-2.22h-5.61v2.22zM28.946 56.314h5.614V44.77h-5.614v11.544zm1.628-10.295h3.008v9.065h-3.008V46.02z"/><path d="M33.445 56.314h4.526V44.77h-4.525v11.544zm.978-10.295h3.007v9.065h-3.007V46.02zM23.372 44.77h5.195v11.544h-5.195V44.77z"/><path d="M13.725 56.314V54.58s-.04-.45.49-.938c.43-.352.706-.533.725-.545v-.002h.002v.002c.018.012.295.193.726.545.53.49.49.938.49.938v1.734h.82V54.58s-.043-.45.487-.938c.43-.352.71-.533.726-.545v-.002h.004v.002c.018.012.294.193.727.545.53.49.49.938.49.938v1.734h.818V54.58s-.04-.45.49-.938c.43-.352.707-.533.725-.545v-.002h.002v.002c.018.012.296.193.727.545.53.49.488.938.488.938v1.734h.732V47.21h-10.38v9.104h.713zm6.606-6.056c.21-.26.438-.384.658-.528.257-.168.444-.292.464-.306v-.002h.002v.002l.465.306c.22.144.447.268.656.528.217.27.22.48.22.48v.956H20.11v-.956s.004-.21.22-.48zm-3.25 0c.208-.26.436-.384.657-.528l.464-.306v-.002h.004v.002l.463.306c.22.144.45.268.657.528.217.27.22.48.22.48v.956H16.86v-.956s.003-.21.22-.48zm-3.252 0c.21-.26.436-.384.657-.528l.464-.306v-.002h.002v.002l.463.306c.22.144.45.268.657.528.217.27.22.48.22.48v.956h-2.684v-.956s.002-.21.22-.48z"/><path d="M13.237 56.314l-.27-14.37v-.152c-.16-.15-1.586-.268-2.795-.277h-.01c-1.21.01-2.636.126-2.796.277v.153l-.268 14.37h6.14M39.254 33.83h21.29v22.484h.515v-23.01H38.737v23.01h.516V33.83M61.827 56.314h4.525V44.77h-4.525v11.544zm.54-10.295h3.007v9.065h-3.007V46.02zM71.23 44.77h5.195v11.544H71.23V44.77zM1.855 69.906l1.63-1.778-1.7-1.855-1.63 1.778 1.7 1.856M81.12 69.906l1.628-1.778-1.7-1.855-1.628 1.778 1.7 1.856M15.447 72.464c.08.197.164.394.254.586.048.1.103.217.164.308.08.116.308.19.433.225l.2.054v.648H12.12v-.655l.207-.05c.49-.115.627-.478.627-.965 0-.555-.254-1.08-.56-1.52-.415-.593-.967-1.042-1.587-1.383-.644-.355-1.338-.534-2.06-.574l-.907 2.61c-.116.335-.258.79-.258 1.15 0 .18.052.33.18.452.145.136.313.204.507.225l.237.028v.682h-3.98v-.653l.206-.05c.143-.036.317-.09.443-.17.11-.07.204-.18.276-.284.304-.456.54-1.057.728-1.573l2.727-7.48c.047-.124.092-.25.133-.37.03-.095.058-.192.077-.29v-.007c.02-.083.03-.168.03-.253 0-.07-.015-.124-.063-.172-.065-.065-.154-.097-.24-.11l-.226-.04v-.678h4.293v.656l-.198.056c-.197.054-.297.147-.297.365 0 .17.086.43.14.586l2.892 8.648zm-5.103-7.897L9.2 67.71c.546.037 1.08.158 1.596.362.31.123.602.275.875.46l-1.326-3.965zM24.02 63.58l-.82-.043h-.006c-.047-.006-.095-.012-.142-.014-.056-.003-.113-.003-.168-.003-.566 0-1.128.082-1.663.275-.504.182-.946.472-1.326.862-.405.415-.69.915-.886 1.47l-.08.228-.643-.15 1.048-4.61.342.44c.037.05.103.07.158.08l.006.002c.175.037.398.038.577.038h7.25L21.06 72.878l.797.042c.068 0 .136.003.205.006l.155.012c.695-.002 1.38-.113 2.034-.356.64-.238 1.215-.59 1.722-1.06.52-.482.927-1.06 1.232-1.712l.1-.212.653.206-1.937 5.072-.275-.5c-.02-.03-.048-.046-.083-.053l-.006-.002c-.148-.036-.372-.035-.524-.035H17.46l6.56-10.705M38.93 72.464c.08.197.165.394.255.586.046.1.1.217.162.308.08.116.308.19.432.225l.2.054v.648h-4.377v-.655l.208-.05c.49-.115.627-.478.627-.965 0-.555-.254-1.08-.56-1.52-.414-.593-.967-1.042-1.587-1.383-.644-.355-1.338-.534-2.06-.574l-.907 2.61c-.117.335-.257.79-.257 1.15 0 .18.05.33.18.452.144.136.313.204.506.225l.238.028v.682h-3.98v-.653l.207-.05c.142-.036.317-.09.443-.17.11-.07.203-.18.275-.284.304-.456.54-1.057.728-1.573l2.728-7.48c.048-.124.093-.25.133-.37.03-.095.058-.192.077-.29v-.007c.02-.083.03-.168.03-.253 0-.07-.015-.124-.062-.172-.066-.065-.154-.097-.242-.11l-.224-.04v-.678h4.292v.656l-.2.056c-.196.054-.297.147-.297.365 0 .17.088.43.143.586l2.89 8.648zm-5.103-7.897l-1.144 3.142c.547.037 1.08.158 1.596.362.31.123.602.275.874.46l-1.327-3.965zM48.407 71.21l-4.837-6.78v7.276c0 .447.023 1.006.15 1.43.094.313.35.41.608.44l.213.024v.685H40.66v-.674l.202-.033c.235-.04.525-.137.62-.423.13-.38.15-.924.15-1.328v-7.083c0-.332-.007-.685-.05-1.014-.025-.215-.093-.41-.208-.577-.12-.177-.327-.25-.51-.28l-.204-.034v-.685h4.896v.704l-.698.004 3.785 5.38V64.74c0-.44-.018-1.025-.15-1.44-.1-.308-.382-.397-.634-.426l-.214-.024v-.695h3.91v.686l-.204.033c-.242.038-.522.135-.618.43-.126.383-.148.903-.148 1.31v7.093c0 .438.022.987.152 1.402.097.31.357.424.617.47l.203.034v.673h-3.91v-.683l.21-.027c.18-.023.393-.085.522-.25.116-.148.232-.32.26-.52l.002-.74c0-.34-.08-.686-.23-.856M52.375 73.337c0-.253.083-.48.266-.667.186-.19.423-.28.695-.28.263 0 .487.097.657.285.163.18.245.393.245.63 0 .248-.09.47-.26.657-.178.193-.404.3-.676.3-.263 0-.485-.103-.66-.286-.173-.18-.265-.396-.265-.64M58.448 66.18l1.017-.847c.315-.262.624-.533.927-.81.314-.288.617-.592.896-.917.098-.115.346-.424.346-.59 0-.017-.002-.062-.01-.083-.055-.034-.153-.052-.21-.06l-.233-.03v-.688h4.605v.707l-.253.013c-.362.02-.71.105-1.04.255-.31.14-.612.31-.884.518-.37.282-.73.583-1.082.887l-1.033.892c.487.5.942 1.03 1.352 1.6.46.636.87 1.306 1.23 2.006.376.724.706 1.472.997 2.232l.322.81v.002c.106.28.215.566.34.837.077.166.187.315.312.445l.003.003c.115.124.253.192.418.213l.234.03v.68h-4.26v-.67l.225-.038c.247-.043.37-.145.37-.412 0-.49-.197-1.088-.37-1.538-.24-.616-.51-1.22-.83-1.794-.582-1.043-1.306-2.017-2.077-2.92L58.448 68v3.706c0 .447.025 1.006.17 1.43.106.313.395.41.688.44l.24.024v.685h-4.593v-.67l.226-.038c.203-.033.447-.106.588-.276.124-.15.2-.322.23-.518.05-.308.055-.644.055-.956v-7.083c0-.437-.024-.996-.17-1.41-.11-.31-.412-.417-.7-.46l-.23-.035v-.683h4.594v.697l-.244.022c-.268.025-.58.103-.687.392-.145.39-.168.934-.168 1.348v1.565M74.436 63.58l-.82-.043h-.008c-.047-.006-.094-.012-.142-.014-.056-.003-.112-.003-.168-.003-.566 0-1.127.082-1.663.275-.504.182-.946.472-1.326.862-.407.415-.693.915-.888 1.47l-.08.228-.643-.15 1.047-4.61.342.44c.036.05.102.07.157.08l.006.002c.176.037.4.038.578.038h7.25l-6.604 10.723.797.042c.07 0 .137.003.206.006l.154.012c.695-.002 1.38-.113 2.035-.356.638-.238 1.213-.59 1.72-1.06.52-.482.927-1.06 1.232-1.712l.1-.212.654.206-1.938 5.072-.276-.5c-.018-.03-.048-.046-.083-.053l-.007-.002c-.147-.036-.37-.035-.522-.035h-7.675l6.56-10.705"/></g></svg>